<?xml version="1.0" encoding="utf-8"?>
<!-- Generator: Adobe Illustrator 19.1.1, SVG Export Plug-In . SVG Version: 6.00 Build 0)  -->
<svg version="1.1" id="_x31_0" xmlns="http://www.w3.org/2000/svg" xmlns:xlink="http://www.w3.org/1999/xlink" x="0px" y="0px"
	 viewBox="0 0 512 512" style="enable-background:new 0 0 512 512;" xml:space="preserve">
<style type="text/css">
	.st0{fill:#000000;}
</style>
<g>
	<path class="st0" d="M445.553,0H66.448C53.209,0,42.475,10.734,42.475,23.973v464.054c0,13.242,10.73,23.973,23.969,23.973h379.11
		c13.242,0,23.972-10.734,23.972-23.973V23.973C469.525,10.734,458.795,0,445.553,0z M73.323,474.57V37.426
		c0-3.633,2.945-6.578,6.582-6.578H432.1c3.633,0,6.578,2.945,6.578,6.578V474.57c0,3.637-2.946,6.582-6.578,6.582H79.904
		C76.268,481.152,73.323,478.207,73.323,474.57z"/>
	<path class="st0" d="M177.135,120.379c2.082-0.742,3.852-1.797,5.317-3.157c1.461-1.359,2.578-3.004,3.347-4.93
		c0.77-1.926,1.157-4.094,1.157-6.508c0-1.953-0.27-3.699-0.809-5.238c-0.539-1.539-1.402-2.954-2.582-4.234
		c-0.566-0.566-1.129-1.055-1.695-1.465c-0.418-0.305-1.129-0.699-1.84-1.094c-0.187-0.137-0.355-0.25-0.562-0.41
		c4.473-2.516,6.719-6.375,6.719-11.59c0-2.308-0.398-4.386-1.195-6.234c-0.794-1.851-1.922-3.43-3.387-4.742
		c-1.465-1.309-3.25-2.321-5.355-3.039c-2.106-0.719-4.442-1.078-7.008-1.078h-22.023v54.836h22.945
		C172.732,121.496,175.057,121.125,177.135,120.379z M157.92,88.84V76.211h10.472c2.207,0,3.942,0.566,5.199,1.695
		c1.258,1.129,1.887,2.668,1.887,4.621c0,1.95-0.629,3.492-1.887,4.622c-1.258,1.129-2.992,1.691-5.199,1.691H157.92z
		 M176.248,105.168c0,2.106-0.641,3.766-1.926,4.969c-1.286,1.207-3.028,1.809-5.238,1.809H157.92V98.465h11.164
		c2.21,0,3.953,0.594,5.238,1.774C175.608,101.422,176.248,103.062,176.248,105.168z"/>
	<rect x="197.892" y="66.66" class="st0" width="10.703" height="54.836"/>
	<polygon class="st0" points="221.385,121.336 221.385,121.496 231.892,121.496 231.928,121.496 231.928,121.496 232.088,121.496 
		232.088,103.117 232.217,88.043 253.807,121.496 263.358,121.496 263.358,66.66 252.651,66.66 252.651,84.996 252.522,100.035 
		230.936,66.66 221.385,66.66 221.385,121.172 221.381,121.336 	"/>
	<path class="st0" d="M275.025,106.981c0.333,1.77,0.871,3.398,1.618,4.886c0.746,1.492,1.809,2.93,3.195,4.313
		c1.898,1.851,4.031,3.277,6.394,4.277c2.359,1,5.106,1.5,8.238,1.5c2.93,0,5.66-0.438,8.203-1.308
		c2.539-0.871,4.969-2.516,7.282-4.93c2-2.05,3.37-4.363,4.117-6.93c0.742-2.57,1.118-5.828,1.118-9.781v-8.012h-20.719v9.012h10.09
		v2.004c0,1.438-0.191,2.762-0.578,3.965c-0.387,1.206-1.012,2.324-1.887,3.351c-0.87,0.977-1.949,1.734-3.234,2.274
		c-1.285,0.539-2.746,0.805-4.39,0.805c-1.488,0-2.797-0.254-3.926-0.77c-1.133-0.512-2.106-1.203-2.93-2.078
		c-0.512-0.566-0.938-1.207-1.27-1.926s-0.606-1.645-0.809-2.774c-0.207-1.129-0.344-2.55-0.422-4.274
		c-0.078-1.718-0.118-3.886-0.118-6.507c0-2.618,0.039-4.786,0.118-6.508c0.078-1.719,0.214-3.145,0.422-4.274
		c0.203-1.129,0.477-2.043,0.809-2.734c0.332-0.695,0.758-1.324,1.27-1.886c0.824-0.875,1.797-1.582,2.93-2.122
		c1.129-0.538,2.438-0.804,3.926-0.804c5.34,0,8.629,2.667,9.859,8.007h9.219l1.406,0.024c0-0.008-0.004-0.016-0.004-0.024h0.164
		c-0.359-2.308-1.043-4.519-2.043-6.621c-1.004-2.106-2.347-3.969-4.043-5.586c-1.695-1.617-3.75-2.914-6.16-3.89
		c-2.418-0.973-5.214-1.461-8.398-1.461c-3.133,0-5.879,0.5-8.238,1.5c-2.363,1-4.496,2.426-6.394,4.278
		c-1.386,1.382-2.449,2.824-3.195,4.312c-0.746,1.489-1.285,3.118-1.618,4.887c-0.335,1.774-0.538,3.71-0.617,5.82
		c-0.074,2.102-0.117,4.465-0.117,7.082c0,2.621,0.042,4.98,0.117,7.086C274.487,103.27,274.69,105.207,275.025,106.981z"/>
	<path class="st0" d="M325.006,106.981c0.332,1.77,0.871,3.398,1.618,4.886c0.746,1.492,1.812,2.93,3.199,4.313
		c1.847,1.851,3.965,3.277,6.351,4.277s5.176,1.5,8.355,1.5c3.188,0,5.958-0.5,8.321-1.5c2.359-1,4.465-2.426,6.312-4.277
		c1.387-1.383,2.454-2.821,3.199-4.313c0.746-1.488,1.294-3.117,1.657-4.886c0.355-1.774,0.578-3.711,0.656-5.817
		c0.074-2.106,0.114-4.465,0.114-7.086c0-2.618-0.039-4.981-0.114-7.082c-0.078-2.11-0.301-4.046-0.656-5.82
		c-0.363-1.77-0.91-3.398-1.657-4.887c-0.746-1.488-1.812-2.93-3.199-4.312c-1.847-1.852-3.953-3.278-6.312-4.278
		c-2.363-1-5.133-1.5-8.321-1.5c-3.179,0-5.969,0.5-8.355,1.5s-4.504,2.426-6.351,4.278c-1.387,1.382-2.454,2.824-3.199,4.312
		c-0.746,1.489-1.286,3.118-1.618,4.887c-0.336,1.774-0.539,3.71-0.617,5.82c-0.074,2.102-0.114,4.465-0.114,7.082
		c0,2.621,0.039,4.98,0.114,7.086C324.467,103.27,324.67,105.207,325.006,106.981z M340.564,76.554
		c1.157-0.538,2.481-0.804,3.965-0.804c1.493,0,2.813,0.266,3.969,0.804c1.157,0.539,2.118,1.246,2.887,2.122
		c0.511,0.562,0.938,1.191,1.273,1.886c0.333,0.691,0.602,1.606,0.809,2.734c0.203,1.129,0.359,2.554,0.461,4.274
		c0.102,1.722,0.153,3.89,0.153,6.508c0,2.621-0.051,4.789-0.153,6.507c-0.102,1.723-0.258,3.133-0.461,4.238
		c-0.207,1.106-0.476,2-0.809,2.695c-0.335,0.692-0.762,1.321-1.273,1.883c-0.77,0.875-1.73,1.594-2.887,2.156
		c-1.156,0.566-2.476,0.848-3.969,0.848c-1.484,0-2.808-0.282-3.965-0.848c-1.156-0.562-2.144-1.281-2.965-2.156
		c-0.511-0.562-0.938-1.191-1.27-1.883c-0.336-0.695-0.605-1.59-0.808-2.695c-0.207-1.106-0.348-2.515-0.426-4.238
		c-0.078-1.718-0.113-3.886-0.113-6.507c0-2.618,0.035-4.786,0.113-6.508c0.078-1.719,0.219-3.145,0.426-4.274
		c0.203-1.129,0.472-2.043,0.808-2.734c0.332-0.695,0.758-1.324,1.27-1.886C338.42,77.801,339.408,77.094,340.564,76.554z"/>
	<path class="st0" d="M103.307,143.582c-1.226,0-2.222,0.992-2.222,2.218v96.938v12.34v86.816v12.34v96.938
		c0,1.226,0.996,2.218,2.222,2.218h96.942h12.34h86.828h12.34h96.937c1.227,0,2.223-0.992,2.223-2.218v-96.938v-12.34v-86.816
		v-12.34v-96.938c0-1.226-0.996-2.218-2.223-2.218h-96.937h-12.34h-86.828h-12.34H103.307z M196.459,159.711l-79.246,79.238
		c-1.398,1.398-3.789,0.406-3.789-1.57v-79.238c0-1.226,0.996-2.223,2.222-2.223h79.242
		C196.869,155.918,197.858,158.313,196.459,159.711z M115.647,255.078h82.382c1.227,0,2.219,0.992,2.219,2.218v82.379
		c0,1.226-0.992,2.218-2.219,2.218h-82.382c-1.226,0-2.222-0.992-2.222-2.218v-82.379
		C113.424,256.07,114.42,255.078,115.647,255.078z M115.647,354.234h82.382c1.227,0,2.219,0.992,2.219,2.218v82.379
		c0,1.226-0.992,2.222-2.219,2.222h-82.382c-1.226,0-2.222-0.996-2.222-2.222v-82.379
		C113.424,355.226,114.42,354.234,115.647,354.234z M297.193,242.738h-82.382c-1.226,0-2.222-0.992-2.222-2.219v-82.378
		c0-1.226,0.996-2.223,2.222-2.223h82.382c1.227,0,2.223,0.997,2.223,2.223v82.378C299.416,241.746,298.42,242.738,297.193,242.738z
		 M214.811,255.078h82.382c1.227,0,2.223,0.992,2.223,2.218v82.379c0,1.226-0.996,2.218-2.223,2.218h-82.382
		c-1.226,0-2.222-0.992-2.222-2.218v-82.379C212.588,256.07,213.584,255.078,214.811,255.078z M214.811,354.234h79.242
		c1.98,0,2.969,2.39,1.57,3.789l-79.242,79.238c-1.398,1.398-3.793,0.41-3.793-1.57v-79.238
		C212.588,355.226,213.584,354.234,214.811,354.234z M396.358,242.738h-82.383c-1.226,0-2.218-0.992-2.218-2.219v-82.378
		c0-1.226,0.992-2.223,2.218-2.223h82.383c1.226,0,2.218,0.997,2.218,2.223v82.378C398.576,241.746,397.584,242.738,396.358,242.738
		z M313.975,255.078h79.242c1.976,0,2.969,2.39,1.57,3.789l-79.242,79.238c-1.398,1.398-3.789,0.406-3.789-1.57v-79.238
		C311.756,256.07,312.748,255.078,313.975,255.078z M313.975,354.234h82.383c1.226,0,2.218,0.992,2.218,2.218v82.379
		c0,1.226-0.992,2.222-2.218,2.222h-82.383c-1.226,0-2.218-0.996-2.218-2.222v-82.379
		C311.756,355.226,312.748,354.234,313.975,354.234z"/>
	<path class="st0" d="M238.881,306.23c0.523,0.512,0.762,1.246,0.637,1.969l-2.887,16.828c-0.308,1.813,1.594,3.195,3.223,2.34
		l15.113-7.946c0.649-0.339,1.422-0.339,2.066,0l15.118,7.946c1.629,0.855,3.531-0.527,3.218-2.34l-2.886-16.828
		c-0.122-0.722,0.117-1.457,0.641-1.969l12.226-11.918c1.316-1.286,0.59-3.52-1.23-3.786l-16.898-2.457
		c-0.723-0.106-1.348-0.558-1.672-1.215l-7.558-15.312c-0.813-1.649-3.165-1.649-3.981,0l-7.558,15.312
		c-0.321,0.657-0.946,1.11-1.672,1.215l-16.898,2.457c-1.821,0.266-2.547,2.5-1.226,3.786L238.881,306.23z"/>
	<rect x="98.85" y="88.84" class="st0" width="26.461" height="9.625"/>
	<polygon class="st0" points="386.69,98.309 386.69,98.465 413.151,98.465 413.151,88.84 386.69,88.84 386.69,98.278 386.69,98.309 
			"/>
</g>
</svg>
